HIERARCHY
ROOT SpineBase
{
  OFFSET 0.000000 0.000000 0.000000
  CHANNELS 6 Xposition Yposition Zposition Zrotation Xrotation Yrotation
  JOINT SpineMid
  {
    OFFSET 0.000000 32.588186 0.000000
    CHANNELS 3 Zrotation Xrotation Yrotation
    JOINT SpineShoulder
    {
      OFFSET -0.176323 24.189188 -0.741156
      CHANNELS 3 Zrotation Xrotation Yrotation
      JOINT Neck
      {
        OFFSET -0.026702 8.005718 -0.582504
        CHANNELS 3 Zrotation Xrotation Yrotation
        JOINT Head
        {
          OFFSET 4.925211 12.581449 4.236661
          CHANNELS 3 Zrotation Xrotation Yrotation
          End Site
          {
            OFFSET 0 0 0
          }
        }
      }
      JOINT ShoulderLeft
      {
        OFFSET -11.500166 -1.814275 -11.834023
        CHANNELS 3 Zrotation Xrotation Yrotation
        JOINT ElbowLeft
        {
          OFFSET -7.136770 -24.537637 -8.559575
          CHANNELS 3 Zrotation Xrotation Yrotation
          JOINT WristLeft
          {
            OFFSET 2.901496 -20.288946 -9.138044
            CHANNELS 3 Zrotation Xrotation Yrotation
            JOINT HandLeft
            {
              OFFSET 1.021358 -9.359474 -0.522084
              CHANNELS 3 Zrotation Xrotation Yrotation
              JOINT HandTipLeft
              {
                OFFSET 1.831192 -7.610371 -1.027290
                CHANNELS 3 Zrotation Xrotation Yrotation
                End Site
                {
                  OFFSET 0 0 0
                }
              }
              JOINT ThumbLeft
              {
                OFFSET -1.971582 -0.161692 -1.418699
                CHANNELS 3 Zrotation Xrotation Yrotation
                End Site
                {
                  OFFSET 0 0 0
                }
              }
            }
          }
        }
      }
      JOINT ShoulderRight
      {
        OFFSET 11.492386 -4.322628 11.225517
        CHANNELS 3 Zrotation Xrotation Yrotation
        JOINT ElbowRight
        {
          OFFSET 2.257588 -26.403509 2.998701
          CHANNELS 3 Zrotation Xrotation Yrotation
          JOINT WristRight
          {
            OFFSET 4.802690 -25.997783 -0.491471
            CHANNELS 3 Zrotation Xrotation Yrotation
            JOINT HandRight
            {
              OFFSET 2.487717 -11.661390 0.975655
              CHANNELS 3 Zrotation Xrotation Yrotation
              JOINT HandTipRight
              {
                OFFSET 2.540892 -4.335480 -2.934635
                CHANNELS 3 Zrotation Xrotation Yrotation
                End Site
                {
                  OFFSET 0 0 0
                }
              }
              JOINT ThumbRight
              {
                OFFSET -1.177375 -1.638344 -5.853372
                CHANNELS 3 Zrotation Xrotation Yrotation
                End Site
                {
                  OFFSET 0 0 0
                }
              }
            }
          }
        }
      }
    }
  }
  JOINT HipLeft
  {
    OFFSET -4.794525 1.845153 -7.984860
    CHANNELS 3 Zrotation Xrotation Yrotation
    JOINT KneeLeft
    {
      OFFSET -11.528254 -34.192288 -3.503661
      CHANNELS 3 Zrotation Xrotation Yrotation
      JOINT AnkleLeft
      {
        OFFSET -8.200716 -36.809549 4.206858
        CHANNELS 3 Zrotation Xrotation Yrotation
        JOINT FootLeft
        {
          OFFSET 1.319495 -7.767937 -6.481654
          CHANNELS 3 Zrotation Xrotation Yrotation
          End Site
          {
            OFFSET 0 0 0
          }
        }
      }
    }
  }
  JOINT HipRight
  {
    OFFSET 5.750966 0.174869 0.707457
    CHANNELS 3 Zrotation Xrotation Yrotation
    JOINT KneeRight
    {
      OFFSET -3.613995 -37.026856 0.219242
      CHANNELS 3 Zrotation Xrotation Yrotation
      JOINT AnkleRight
      {
        OFFSET -7.561475 -36.238410 8.847948
        CHANNELS 3 Zrotation Xrotation Yrotation
        JOINT FootRight
        {
          OFFSET 4.080627 -6.233463 -7.387562
          CHANNELS 3 Zrotation Xrotation Yrotation
          End Site
          {
            OFFSET 0 0 0
          }
        }
      }
    }
  }
}
MOTION
Frames: 5
Frame Time: 0.033333
-45.428157 81.573358 345.052418 -0.000000 0.000000 -39.497690 -0.000000 0.000000 39.497690 -0.000000 0.000000 0.000000 -0.000000 0.000000 0.000000 0.000000 0.000000 0.000000 -0.000000 0.000000 0.000000 -0.000000 0.000000 0.000000 -0.000000 0.000000 0.000000 -0.000000 0.000000 0.000000 0.000000 0.000000 0.000000 0.000000 0.000000 0.000000 -0.000000 0.000000 0.000000 -0.000000 0.000000 0.000000 -0.000000 0.000000 0.000000 -0.000000 0.000000 0.000000 0.000000 0.000000 0.000000 0.000000 0.000000 0.000000 -0.000000 0.000000 39.497690 -0.000000 0.000000 0.000000 -0.000000 0.000000 0.000000 0.000000 0.000000 0.000000 -0.000000 0.000000 39.497690 -0.000000 0.000000 0.000000 -0.000000 0.000000 0.000000 0.000000 0.000000 0.000000
-45.665340 81.600556 344.777421 0.304068 0.020779 -39.899673 -0.219944 -0.210984 39.899212 -0.000000 0.000000 0.000000 1.100278 0.035704 -0.386247 0.000000 0.000000 0.000000 -0.000000 0.000000 0.000000 -1.160345 -3.741156 -0.051303 -2.792101 0.371163 -0.030280 0.110902 0.854798 0.086219 0.000000 0.000000 0.000000 0.000000 0.000000 0.000000 1.008254 0.598086 0.160363 -1.009979 -0.595169 -0.170871 -1.497989 -2.852950 -0.771918 4.014539 0.252524 -2.640111 0.000000 0.000000 0.000000 0.000000 0.000000 0.000000 -0.219944 -0.210984 39.899212 -0.000000 0.000000 0.000000 -0.528001 -0.881309 0.288886 0.000000 0.000000 0.000000 -0.219944 -0.210984 39.899212 -0.000000 0.000000 0.000000 5.761813 6.965923 -2.370166 0.000000 0.000000 0.000000
-45.879811 81.628555 344.544279 0.555521 0.062856 -40.185424 -0.383845 -0.406473 40.183758 -0.000000 0.000000 0.000000 2.065656 0.032492 -0.713928 0.000000 0.000000 0.000000 0.698810 -1.176556 0.106185 -2.916716 -5.661406 -0.164699 -5.667674 0.110790 0.036837 0.877733 2.255052 0.251979 0.000000 0.000000 0.000000 0.000000 0.000000 0.000000 1.846883 1.057721 0.283070 -2.749154 -1.354638 -0.376593 -1.711047 -4.649462 -1.339201 7.285396 0.277296 -5.085632 0.000000 0.000000 0.000000 0.000000 0.000000 0.000000 -0.383845 -0.406473 40.183758 -0.000000 0.000000 0.000000 -0.957627 -1.710837 0.501094 0.000000 0.000000 0.000000 0.472872 0.045883 40.212305 -1.118138 1.208150 -0.273280 10.099245 10.751824 -4.011696 0.000000 0.000000 0.000000
-46.071569 81.657354 344.352991 0.754232 0.126244 -40.355151 -0.493035 -0.584574 40.351805 -0.000000 0.000000 0.000000 2.897001 -0.006896 -0.982589 0.000000 0.000000 0.000000 0.929195 -1.799855 0.215674 -4.110206 -7.537474 -0.264809 -8.327895 -0.498048 0.116660 2.006947 3.949943 0.458001 0.000000 0.000000 0.000000 0.000000 0.000000 0.000000 2.505935 1.370163 0.371648 -3.653360 -1.676511 -0.501489 -2.244830 -6.128329 -1.799879 9.828892 0.362746 -7.056206 0.000000 0.000000 0.000000 0.000000 0.000000 0.000000 0.299030 -0.339660 40.390169 -0.761982 0.326646 -0.029803 -1.288176 -2.484518 0.637630 0.000000 0.000000 0.000000 0.707594 -0.073729 40.404014 -1.470460 1.775377 -0.382121 13.094976 13.572973 -5.378030 0.000000 0.000000 0.000000
-46.240616 81.686953 344.203559 0.900109 0.210942 -40.408918 -0.548680 -0.744081 40.403698 -0.000000 0.000000 0.000000 3.595364 -0.080201 -1.192067 0.000000 0.000000 0.000000 1.081196 -2.447001 0.361424 -5.141752 -8.835593 -0.354194 -10.439473 -1.128145 0.154268 3.144837 5.642536 0.677069 0.000000 0.000000 0.000000 0.000000 0.000000 0.000000 2.977451 1.528841 0.428920 -4.229472 -1.757211 -0.568663 -2.613963 -7.179217 -2.126192 11.675056 0.705162 -8.389751 0.000000 0.000000 0.000000 0.000000 0.000000 0.000000 0.479883 -0.381224 40.441180 -1.018192 0.390901 -0.023907 -1.519102 -3.199011 0.699535 0.000000 0.000000 0.000000 0.942050 -0.289656 40.486247 -1.686435 2.320790 -0.473769 15.078852 15.362448 -6.285565 0.000000 0.000000 0.000000
